<svg xmlns="http://www.w3.org/2000/svg" width="1800" height="1200" viewBox="0 0 1800 1200">
  <defs>
    <style>
      .title{font-family:Arial, sans-serif;font-size:30px;fill:#E2EEF2;letter-spacing:0}
      .label{font-family:Arial, sans-serif;font-size:17px;fill:#D8E6EA;letter-spacing:0}
      .small{font-family:Arial, sans-serif;font-size:13px;fill:#A8C8D8;letter-spacing:0}
      .tiny{font-family:Arial, sans-serif;font-size:11px;fill:#A7A09A;letter-spacing:0}
      .roomFrame{fill:#0B0D0F;stroke:#3D3535;stroke-width:2}
      .floor{fill:#2C2A2A;stroke:#4A3F3F;stroke-width:2}
      .shell{fill:#151719;stroke:#5C4E4E;stroke-width:3}
      .wall{fill:#3D3535;stroke:#7A6550;stroke-width:3}
      .void{fill:#050607;stroke:#1A2327;stroke-width:2}
      .water{fill:#152B32;stroke:#4A8190;stroke-width:2}
      .rift{stroke:#7BA7BC;stroke-width:4;fill:none}
      .danger{stroke:#8B1A1A;stroke-width:3;fill:none}
      .gate{fill:#101315;stroke:#B8944C;stroke-width:4}
      .dash{fill:none;stroke:#A8C8D8;stroke-width:3;stroke-dasharray:8 7}
      .block{fill:#211F20;stroke:#8A7664;stroke-width:3}
      .legendBox{fill:#101315;stroke:#465B63;stroke-width:1.5}
    </style>
  </defs>
  <rect width="1800" height="1200" fill="#060708"/>
  <text x="40" y="52" class="title">RIMA Act 1 Shattered Keep - First Room Blockout Set</text>
  <text x="40" y="82" class="small">Readable playable floor, non-playable visual shell, authored walls, gate sockets, water/chasm accents, dash-only gap candidates.</text>

  <g id="legend" transform="translate(1240 24)">
    <rect width="500" height="92" rx="8" class="legendBox"/>
    <rect x="18" y="20" width="28" height="18" class="floor"/><text x="58" y="34" class="tiny">PlayableFloorMask</text>
    <rect x="184" y="20" width="28" height="18" class="wall"/><text x="224" y="34" class="tiny">WallCollision</text>
    <rect x="344" y="20" width="28" height="18" class="shell"/><text x="384" y="34" class="tiny">VisualShell</text>
    <rect x="18" y="56" width="28" height="18" class="water"/><text x="58" y="70" class="tiny">Water/low basin</text>
    <path d="M184 66 H214" class="dash"/><text x="224" y="70" class="tiny">DashTraverseGap</text>
    <path d="M344 66 H374" class="rift"/><text x="384" y="70" class="tiny">Rift source/decal</text>
  </g>

  <g transform="translate(40 130)">
    <rect width="320" height="200" rx="8" class="roomFrame"/>
    <text x="16" y="28" class="label">R01 Broken Entry Gate</text>
    <path d="M160 54 L278 112 L160 174 L42 112 Z" class="shell"/>
    <path d="M160 68 L246 112 L160 156 L74 112 Z" class="floor"/>
    <rect x="126" y="48" width="70" height="28" class="wall"/>
    <path d="M132 164 L160 184 L188 164" class="gate"/>
    <path d="M145 82 L172 94" class="rift"/>
    <text x="16" y="184" class="tiny">first read, broad center, calm shell</text>
  </g>

  <g transform="translate(390 130)">
    <rect width="320" height="200" rx="8" class="roomFrame"/>
    <text x="16" y="28" class="label">R02 Ordered Guard Hall</text>
    <path d="M160 48 L286 112 L160 178 L34 112 Z" class="shell"/>
    <path d="M160 66 L256 112 L160 160 L64 112 Z" class="floor"/>
    <path d="M94 100 H128 V124 H104" class="block"/>
    <path d="M226 100 H192 V124 H216" class="block"/>
    <rect x="132" y="50" width="56" height="24" class="gate"/>
    <text x="16" y="184" class="tiny">two L-cover pieces, dash lanes stay open</text>
  </g>

  <g transform="translate(740 130)">
    <rect width="320" height="200" rx="8" class="roomFrame"/>
    <text x="16" y="28" class="label">R03 Cell Spine</text>
    <path d="M160 46 L286 112 L160 180 L34 112 Z" class="shell"/>
    <path d="M160 70 L236 112 L160 154 L84 112 Z" class="floor"/>
    <rect x="62" y="80" width="46" height="28" class="wall"/>
    <rect x="62" y="118" width="46" height="28" class="wall"/>
    <rect x="212" y="80" width="46" height="28" class="wall"/>
    <rect x="212" y="118" width="46" height="28" class="wall"/>
    <path d="M80 93 L102 100 M218 134 L252 142" class="danger"/>
    <text x="16" y="184" class="tiny">side cells stage flanks, center readable</text>
  </g>

  <g transform="translate(1090 130)">
    <rect width="320" height="200" rx="8" class="roomFrame"/>
    <text x="16" y="28" class="label">R04 Broken Causeway</text>
    <path d="M160 48 L292 112 L160 178 L28 112 Z" class="void"/>
    <path d="M160 70 L246 112 L160 154 L74 112 Z" class="floor"/>
    <path d="M112 100 L136 112 L112 124 L88 112 Z" class="void"/>
    <path d="M202 100 L226 112 L202 124 L178 112 Z" class="void"/>
    <path d="M92 112 H134 M180 112 H224" class="dash"/>
    <path d="M52 116 C76 148 98 158 128 164" class="water"/>
    <text x="16" y="184" class="tiny">dash-only broken gaps, side water/chasm</text>
  </g>

  <g transform="translate(1440 130)">
    <rect width="320" height="200" rx="8" class="roomFrame"/>
    <text x="16" y="28" class="label">R05 Cross-Chain Clamp</text>
    <path d="M160 48 L286 112 L160 178 L34 112 Z" class="shell"/>
    <path d="M160 64 L248 112 L160 160 L72 112 Z" class="floor"/>
    <circle cx="70" cy="70" r="13" class="block"/>
    <circle cx="250" cy="70" r="13" class="block"/>
    <circle cx="70" cy="154" r="13" class="block"/>
    <circle cx="250" cy="154" r="13" class="block"/>
    <path d="M78 78 L242 146 M242 78 L78 146" stroke="#6B5B4A" stroke-width="4"/>
    <text x="16" y="184" class="tiny">elite pressure, chains are visual/decal lines</text>
  </g>

  <g transform="translate(40 385)">
    <rect width="320" height="200" rx="8" class="roomFrame"/>
    <text x="16" y="28" class="label">R06 Sunken Crypt Basin</text>
    <ellipse cx="160" cy="112" rx="126" ry="70" class="shell"/>
    <ellipse cx="160" cy="112" rx="88" ry="48" class="floor"/>
    <path d="M86 122 C112 146 152 154 194 142" class="water"/>
    <path d="M226 86 C246 94 256 106 260 128" class="water"/>
    <circle cx="106" cy="92" r="8" class="block"/>
    <circle cx="222" cy="140" r="9" class="block"/>
    <text x="16" y="184" class="tiny">water on edges, clean ring movement</text>
  </g>

  <g transform="translate(390 385)">
    <rect width="320" height="200" rx="8" class="roomFrame"/>
    <text x="16" y="28" class="label">R07 Reliquary Loop</text>
    <path d="M160 48 L288 112 L160 178 L32 112 Z" class="shell"/>
    <path d="M160 66 L252 112 L160 160 L68 112 Z" class="floor"/>
    <path d="M160 88 L204 112 L160 136 L116 112 Z" fill="#0B0D0F" stroke="#7A6550" stroke-width="3"/>
    <circle cx="160" cy="112" r="15" fill="#B8944C"/>
    <path d="M94 112 H128 M192 112 H226" class="dash"/>
    <text x="16" y="184" class="tiny">loop around relic, two clean dash cuts</text>
  </g>

  <g transform="translate(740 385)">
    <rect width="320" height="200" rx="8" class="roomFrame"/>
    <text x="16" y="28" class="label">R08 Shrine Crossroad</text>
    <path d="M160 40 L286 112 L160 184 L34 112 Z" class="shell"/>
    <path d="M160 64 L208 92 L256 112 L208 132 L160 160 L112 132 L64 112 L112 92 Z" class="floor"/>
    <circle cx="160" cy="86" r="18" fill="#11232A" stroke="#7BA7BC" stroke-width="3"/>
    <path d="M160 86 L160 156 M84 112 H236" class="rift"/>
    <rect x="134" y="42" width="52" height="24" class="gate"/>
    <rect x="240" y="100" width="36" height="24" class="gate"/>
    <text x="16" y="184" class="tiny">gate promises around a non-blocking shrine</text>
  </g>

  <g transform="translate(1090 385)">
    <rect width="320" height="200" rx="8" class="roomFrame"/>
    <text x="16" y="28" class="label">R09 Rift Well Edge Tear</text>
    <path d="M160 48 L290 112 L160 178 L30 112 Z" class="shell"/>
    <path d="M134 72 L232 112 L134 154 L58 112 Z" class="floor"/>
    <path d="M250 62 C224 94 226 130 256 164" class="rift"/>
    <path d="M232 78 C208 104 214 132 236 150" class="danger"/>
    <circle cx="258" cy="112" r="26" fill="#061012" stroke="#7BA7BC" stroke-width="3"/>
    <text x="16" y="184" class="tiny">combat core shifted away from side tear</text>
  </g>

  <g transform="translate(1440 385)">
    <rect width="320" height="200" rx="8" class="roomFrame"/>
    <text x="16" y="28" class="label">R10 Containment Arena</text>
    <circle cx="160" cy="112" r="82" class="shell"/>
    <path d="M160 50 L240 112 L160 174 L80 112 Z" class="floor"/>
    <circle cx="160" cy="112" r="28" fill="#111315" stroke="#7BA7BC" stroke-width="3"/>
    <circle cx="66" cy="70" r="14" class="block"/>
    <circle cx="254" cy="70" r="14" class="block"/>
    <circle cx="66" cy="154" r="14" class="block"/>
    <circle cx="254" cy="154" r="14" class="block"/>
    <path d="M80 78 L132 104 M240 78 L188 104 M80 148 L132 120 M240 148 L188 120" stroke="#6B5B4A" stroke-width="4"/>
    <text x="16" y="184" class="tiny">boss containment, center rift phase-only</text>
  </g>

  <g transform="translate(40 680)">
    <rect width="1720" height="440" rx="10" fill="#0B0D0F" stroke="#3D3535" stroke-width="2"/>
    <text x="24" y="40" class="title">Asset Pack Implications</text>
    <text x="24" y="78" class="label">Floor 128x64 flat top-surface</text>
    <text x="24" y="110" class="small">12 base, 8 worn/cracked, 6 wet edge, 6 rift hairline. Reject raised slabs and side faces.</text>
    <text x="24" y="158" class="label">Walls 128x192 and shell modules</text>
    <text x="24" y="190" class="small">straight wall, corners, broken cap, parapet, arch, cell bars, reliquary shelf, boss back wall.</text>
    <text x="24" y="238" class="label">Dash and water accents</text>
    <text x="24" y="270" class="small">dash gaps are walk-blocked candidates only; water and chasm stay visual/shell unless rules exist.</text>
    <text x="24" y="318" class="label">Detail sources</text>
    <text x="24" y="350" class="small">breach, rift tear, chain anchor, shrine, relic, wall base, gate threshold, landmark. No random scatter.</text>
    <g transform="translate(980 72)">
      <rect width="650" height="260" rx="8" fill="#080A0B" stroke="#465B63"/>
      <text x="24" y="36" class="label">Layer Stack</text>
      <rect x="24" y="62" width="230" height="28" class="void"/><text x="272" y="82" class="small">VoidBackdropMask</text>
      <rect x="24" y="100" width="230" height="28" class="shell"/><text x="272" y="120" class="small">VisualShellMask</text>
      <rect x="24" y="138" width="230" height="28" class="wall"/><text x="272" y="158" class="small">WallCollisionMask</text>
      <rect x="24" y="176" width="230" height="28" class="floor"/><text x="272" y="196" class="small">PlayableFloorMask</text>
      <path d="M24 228 H254" class="dash"/><text x="272" y="234" class="small">DashTraverseGap candidate</text>
    </g>
  </g>
</svg>

